<svg xmlns="http://www.w3.org/2000/svg" viewBox="0 0 404.51 621.51">
  <defs>
    <style>
      .cls-1 {
        fill: #35cb61;
      }

      .cls-2 {
        fill: #263d68;
      }

      .cls-3 {
        fill: #fefefe;
      }

      .cls-4 {
        fill: #fdfefd;
      }

      .cls-5 {
        fill: #f9fdfa;
      }
    </style>
  </defs>
  <title>Asset 4</title>
  <g id="Layer_2" data-name="Layer 2">
    <g id="Layer_1-2" data-name="Layer 1">
      <g>
        <path class="cls-1" d="M404.51,104.51v126c-7.84,41.88-24.36,80.72-41.85,119.2-9.94,21.88-21.08,43.18-36.17,62-7.12,8.88-14.38,17.4-18.61,28.15-6.18,15.73-10,32.11-13.84,48.49s-6.58,33-10.28,49.41a102.85,102.85,0,0,1-8.35,23.49C269,574,263,587,255.87,599.47c4.47-5.65,7.43-12.2,11.06-18.34,14.32-24.28,20.08-51.26,25.22-78.54,4.14-21.93,9.27-43.66,17.6-64.5,3.28-8.22,8.65-14.84,14.24-21.52,16.82-20.1,28.81-43.19,39.94-66.7a726.65,726.65,0,0,0,32-80.82c1.53-4.58,2.48-9.35,4.34-13.82.78-1.87,1.2-4.41,4.29-3.72v160a13.59,13.59,0,0,1-6.46,5.16c-6.87,3-13.48,6.48-19.23,11.44-8.69,7.48-12.24,17.62-14.87,28.22s-4.07,21.58-5.94,32.39c-2.47,14.35-6,28.35-13.42,41.06-6.39,11-14.81,20.48-22.23,30.7S307,581,298.76,590.82c-1.74,2.07-4.2,3.26-5.69,5.49-1.41,2.88-4.47,4.33-6.07,7.06a32.36,32.36,0,0,0-8.06,7.07c-2.8,1.36-5.06,3.45-7.45,5.39-2.88,1-5.4,2.9-8.51,3.28a8,8,0,0,1-3.47.88c-6.51-.16-13.06.69-19.45-1.7-3.19-1.19-6.41.84-9.66,1.09-2.71-.51-4.3-2.77-6.44-4.16a8.87,8.87,0,0,1-2.06-3.22c-2.66-5.19-3-5.24-6.63-.9-3.79,2.69-6.4,7.12-11.53,7.84-1.48.1-3,.06-4.45.06l-1.46,0c-3.1-.56-5.67-2.4-8.55-3.5C185,611.7,181,607.62,176.56,604c-1.66-2-3.08-4.11-4.93-5.92-.45-.62-.67-1.36-1.07-2-9.65-10.53-16.53-22.9-23.63-35.14-15.43-26.62-22.38-55.77-25.9-86-2.1-18-3.73-36.1-6.9-54-2-11.28-7.88-19.9-16.75-26.88C90,388.17,82,382.89,76.12,375.22c-12.66-16.57-15.59-34.69-8.06-54.12,3.92-10.11,8.46-20,9.41-30.94,3.09-35.82-2.84-68.82-30.21-94.95a136.07,136.07,0,0,1-11-12.32c-7.94-9.67-9.69-21-7.69-33,1.69-10.19,5.59-19.9,6.76-30.22,2.88-25.41-1.27-48.83-19.11-68.46-2.91-3.2-5.49-6.7-8.32-10C-.75,31.21-1,19.52,1.06,7.32,1.69,3.54,4.12,1.8,7.62,1.07,15.88-.65,24.17.09,32.47.65c16.16,1.1,30.64,7.54,45.12,14a339,339,0,0,1,62.29,35.78c17.73,12.93,29,29.93,33.86,51.37a205.7,205.7,0,0,1,4.81,51.2c2.9-12.26,10.39-26.22,24.09-35.48,17-11.5,40.09-6.56,53.66,10.19,12.36,15.26,19.16,33,23.49,51.9,4.51,19.68,6.93,39.64,8.4,59.78.85,11.67.43,23.3.79,34.95,0,1.58-.6,3.62,1.32,4.46,1.56.69,2.78-.75,4-1.51a242.27,242.27,0,0,1,30.58-15.87c4-1.72,7.8-3.77,11.67-5.73,18.5-9.33,20.11-11.55,23.37-32,3.29-20.57,6.73-41.11,12-61.27,4.43-16.8,9.91-33.22,19.74-47.82a49.06,49.06,0,0,1,7.89-9C401,104.35,402.51,103.31,404.51,104.51Z"/>
        <path class="cls-2" d="M291.59,595c.59,2.77,2.92,1.65,4.44,1.75,20.06,1.34,40.16,2.26,60,5.78a111.4,111.4,0,0,1,11.55,3c1.54.45,3.54,1,3.58,2.95s-2,2.45-3.51,3c-7.85,3-16.13,3.92-24.36,4.89-21.14,2.49-42.36,3.83-63.64,4.29-6.68,1.08-13.47-.51-20.14.84h-51c-6.67-1.35-13.46.24-20.14-.84-27.1-.91-54.19-2-80.92-7.11a23.39,23.39,0,0,1-4.82-1.24c-2.17-.93-5.79-1-5.65-3.93.13-2.77,3.61-3.12,5.89-3.74,14.2-3.86,28.82-4.89,43.39-6.11,7.29-.61,14.61-.85,21.9-1.45,1.52-.12,3.94.87,4.25-2l1.46,1.48c1,2.58,3.35,4.06,5.12,6L190.49,613c2.11,2.51,5.29,3.13,8.05,4.47h-.05c1.73.65,3.46,1.2,5-.41,4-1.43,6.58-4.72,9.5-7.54,2.48-1.28,3.09-5.71,5.91-5.16,2.17.43,2.86,4.16,4.44,6.25a9.84,9.84,0,0,0,2.66,2.91l4.49,3.51c2.39,2.27,3.71.07,5.22-1.26,1.1-1,2-2.32,3.71-.79,5.94,5.39,13.07,4.24,20.1,3.56l2.69-1.09c2.95-1.14,6.08-1.92,8.29-4.43l6.48-4.52c3.55-1.7,5.71-5,8.52-7.52Z"/>
        <path class="cls-3" d="M404.51,251.51c-3.52,7.52-5.31,15.64-8,23.44-14.35,41.59-30.88,82.2-53.9,119.88a164.51,164.51,0,0,1-20.55,27.59c-6.32,6.68-9.59,15.11-12.63,23.59a358.92,358.92,0,0,0-16.52,65.72c-4.66,29.79-15.35,57-30.48,82.78-1.69,2.87-3.25,5.81-4.94,8.67-1.25,2.13-2.46,5-5.6,3.16-2.95-1.75-.89-4,.17-6,.86-1.61,1.76-3.21,2.72-4.77a239.14,239.14,0,0,0,33-88.67c3.74-23.62,9.42-47,18.42-69.3a74.44,74.44,0,0,1,14-22.23c14-15.6,24-33.95,33.4-52.5,20.67-40.6,36-83.28,48.76-126.93.55-1.86.66-3.93,2.18-5.41Z"/>
        <path class="cls-3" d="M204.23,578.84c0,3.49,0,7,0,10.48,0,2.15-.44,4.2-3.11,4.23-2.84,0-2.88-2.23-3-4.27-.61-17-1.74-33.93-4.61-50.71-2.24-13.14-5.13-26.11-10.9-38.26-1.58-3.32-3.16-6.72-5.72-9.33-12.84-13.09-18.77-29.61-23.52-46.72-7.91-28.49-11.68-57.69-14.89-87-4.09-37.44-5.36-75.08-8.23-112.6-3.17-41.43-15.56-80.55-33-118.09a467.23,467.23,0,0,0-60.77-97.7c-1.48-1.83-3.63-3.9-1.2-6,2.73-2.33,4.51.4,6.05,2.31a469.59,469.59,0,0,1,73.15,126.56,357.12,357.12,0,0,1,23.28,112.87c2.35,51.57,6,103.08,15.73,153.92,2.66,13.9,6,27.63,11.11,40.87a81.63,81.63,0,0,0,15.51,26c9.31,10.32,13.07,23.42,16.28,36.55C201,540.63,203,559.66,204.23,578.84Z"/>
        <path class="cls-4" d="M237.48,274.3c-4.17-3.79-6.94-7.69-7.29-13.56-2.46-41.06-5.61-82.08-10.37-122.95-.25-2.16-.76-4.7,2.17-5.29,3.44-.69,3.63,2.09,3.87,4.44,2.07,20.88,4.35,41.74,6.1,62.64C234,224.47,235.66,249.39,237.48,274.3Z"/>
        <path class="cls-5" d="M240.14,455.65c-4-3.8-5.84-6.8-5.71-11.27.62-21.13.47-42.26.34-63.4-.06-9.17,3.52-17.78,5.26-26.71C241.16,387.72,241.86,421.12,240.14,455.65Z"/>
      </g>
    </g>
  </g>
</svg>
